{"title":"Glastonbury 2016 - Shibusashirazu","uid":15443129,"size":1044765757,"categoryP":"video","categoryS":"hd___tv_shows","magnet":"?xt=urn:btih:33e676c09cac432830736ec48525c8aa980949c9&amp;dn=Glastonbury+2016+-+Shibusashirazu&amp;tr=udp%3A%2F%2Ftracker.leechers-paradise.org%3A6969&amp;tr=udp%3A%2F%2Fzer0day.ch%3A1337&amp;tr=udp%3A%2F%2Fopen.demonii.com%3A1337&amp;tr=udp%3A%2F%2Ftracker.coppersurfer.tk%3A6969&amp;tr=udp%3A%2F%2Fexodus.desync.com%3A6969","seeders":2,"leechers":0,"uploader":"RoaElson","files":2,"time":1469843277,"description":"Glastonbury 2016: Shibusashirazu\r\n\r\nThe Japanese free jazz ensemble deliver an electrifying set blending music and performance art.\r\n\r\nBroadcast: 25 June 2016\r\nDuration: 58 minutes\r\n\r\nMedia info:-\r\n\r\nGeneral\r\nFormat : MPEG-4\r\nFormat profile : Base Media\r\nCodec ID : isom (isom/iso2/avc1/mp41)\r\nFile size : 995 MiB\r\nDuration : 57mn 51s\r\nOverall bit rate mode : Variable\r\nOverall bit rate : 2 405 Kbps\r\n\r\nVideo\r\nID : 1\r\nFormat : AVC\r\nFormat/Info : Advanced Video Codec\r\nFormat profile :   \r\nFormat settings, CABAC : Yes\r\nFormat settings, ReFrames : 2 frames\r\nCodec ID : avc1\r\nCodec ID/Info : Advanced Video Coding\r\nDuration : 57mn 51s\r\nBit rate mode : Variable\r\nBit rate : 2 306 Kbps\r\nMaximum bit rate : 3 500 Kbps\r\nWidth : 1 280 pixels\r\nHeight : 720 pixels\r\nDisplay aspect ratio : 16:9\r\nFrame rate mode : Constant\r\nFrame rate : 25.000 fps\r\nColor space : YUV\r\nChroma subsampling : 4:2:0\r\nBit depth : 8 bits\r\nScan type : Progressive\r\nBits/(Pixel*Frame) : 0.100\r\nStream size : 954 MiB (96%)\r\n\r\nAudio\r\nID : 2\r\nFormat : AAC\r\nFormat/Info : Advanced Audio Codec\r\nFormat profile : LC\r\nCodec ID : 40\r\nDuration : 57mn 51s\r\nBit rate mode : Constant\r\nBit rate : 93.5 Kbps\r\nChannel(s) : 2 channels\r\nChannel positions : Front: L R\r\nSampling rate : 48.0 KHz\r\nFrame rate : 46.875 fps (1024 spf)\r\nCompression mode : Lossy\r\nStream size : 38.7 MiB (4%)\r\nDefault : Yes\r\nAlternate group : 1","torrent":{"xt":"urn:btih:33e676c09cac432830736ec48525c8aa980949c9","amp;dn":"Glastonbury+2016+-+Shibusashirazu","amp;tr":["udp%3A%2F%2Ftracker.leechers-paradise.org%3A6969","udp%3A%2F%2Fzer0day.ch%3A1337","udp%3A%2F%2Fopen.demonii.com%3A1337","udp%3A%2F%2Ftracker.coppersurfer.tk%3A6969","udp%3A%2F%2Fexodus.desync.com%3A6969"],"infoHash":"33e676c09cac432830736ec48525c8aa980949c9","infoHashBuffer":{"type":"Buffer","data":[51,230,118,192,156,172,67,40,48,115,110,196,133,37,200,170,152,9,73,201]},"announce":[],"urlList":[]}}